<svg width="1400" height="620" viewBox="0 0 1400 620" fill="none" xmlns="http://www.w3.org/2000/svg">
  <rect width="1400" height="620" fill="#05050A"/>
  <g opacity=".24" fill="#A9B7D8">
    <path d="M107 186c66-82 191-123 302-106 82 12 126 60 208 57 88-4 134-64 222-77 122-18 277 43 354 142 76 98 82 238 12 321-78 93-236 101-356 73-96-22-137-67-228-64-96 4-127 57-226 68-128 14-284-52-342-161-40-76-25-176 54-253Z"/>
    <path d="M210 163c35 4 58 23 92 20 28-3 38-20 67-25 44-8 82 20 113 42 46 33 88 62 140 53 40-7 52-33 91-38 51-7 102 25 139 53 65 49 96 107 169 111 45 3 61-17 108-12 56 6 101 44 129 76-18 57-68 102-140 126-82 27-161 14-220 0-90-22-129-65-218-62-97 3-129 55-226 66-115 14-253-38-315-128-60-86-29-206 71-282Z"/>
  </g>
  <g opacity=".9">
    <path d="M135 389 255 287l155 31 161-126 171 94 162-123 184 67 176-98" stroke="url(#a)" stroke-width="2.4"/>
    <path d="M170 240 348 187l180 86 208-38 152 117 211-35 158 81" stroke="url(#b)" stroke-width="1.8"/>
    <path d="M284 457 456 401l162 58 198-86 159 61 202-53" stroke="#315FA6" stroke-width="1.5"/>
  </g>
  <g>
    <g fill="#8D58FF">
      <circle cx="135" cy="389" r="10" opacity=".6"/><circle cx="255" cy="287" r="9" opacity=".52"/><circle cx="571" cy="192" r="10" opacity=".64"/><circle cx="904" cy="163" r="11" opacity=".6"/><circle cx="1264" cy="132" r="10" opacity=".58"/>
    </g>
    <g fill="#4BC9FF">
      <circle cx="410" cy="318" r="7" opacity=".72"/><circle cx="742" cy="286" r="8" opacity=".72"/><circle cx="1088" cy="230" r="7" opacity=".7"/><circle cx="1177" cy="381" r="8" opacity=".66"/>
    </g>
    <g stroke="#4BC9FF" opacity=".32">
      <circle cx="742" cy="286" r="24"/><circle cx="742" cy="286" r="43"/><circle cx="1088" cy="230" r="28"/><circle cx="904" cy="163" r="52"/>
    </g>
  </g>
  <defs>
    <linearGradient id="a" x1="135" x2="1264" y1="389" y2="132" gradientUnits="userSpaceOnUse">
      <stop stop-color="#2459E6" stop-opacity=".3"/><stop offset=".5" stop-color="#38D5FF" stop-opacity=".6"/><stop offset="1" stop-color="#9B5CFF" stop-opacity=".65"/>
    </linearGradient>
    <linearGradient id="b" x1="170" x2="1257" y1="240" y2="398" gradientUnits="userSpaceOnUse">
      <stop stop-color="#38D5FF" stop-opacity=".35"/><stop offset="1" stop-color="#9B5CFF" stop-opacity=".5"/>
    </linearGradient>
  </defs>
</svg>
